<svg xmlns="http://www.w3.org/2000/svg" data-name="Layer 1" viewBox="0 0 100 125" x="0px" y="0px"><title>Chat</title><path d="M83.33,70c-2-2.23-4.16-4.33-6.27-6.45-1.57-1.57-3.3-3-4.75-4.66-3.87-4.49-7.64-9.09-11.54-13.75a3,3,0,0,1,.16-.36A186.11,186.11,0,0,1,75.76,27.85c.79-.78,1.63-1.52,2.37-2.33,1.66-1.83,1.76-3.05.1-4.78A22.62,22.62,0,0,0,73.78,17c-3.24-2-6.89-3-10.48-4.22a1.32,1.32,0,0,0-1.64.63c-1.42,1.93-2.92,3.8-4.43,5.66-3,3.7-6,7.37-9,11.06a8.67,8.67,0,0,0-.52.78C43,25.82,38.8,20.7,34.09,16a12.3,12.3,0,0,0-2.32,1.48c-1.56,1.66-3,3.4-4.49,5.15-1.13,1.35-2.2,2.75-3.3,4.12s-2.11,2.49-3.09,3.78c-1.09,1.45-1,2.29.31,3.59a81.2,81.2,0,0,0,9.31,8.36c1.83,1.31,3.44,2.92,5.17,4.43C31,54.06,26.61,61.2,21.23,67.62c-2.52,3-4.84,6.16-7.21,9.27-1,1.35-1,2.22.23,3.46a14.11,14.11,0,0,0,2.09,1.76,61.59,61.59,0,0,1,9.38,7.67,9.43,9.43,0,0,0,1.73,1.14A23.76,23.76,0,0,1,29,88Q38.58,74.6,48.23,61.29c.27-.37.56-.7.89-1.1.34.3.63.55.91.82l9.6,9.77q4,4.05,8,8.08c1.55,1.57,2.23,1.57,4.1.55Q77,76.5,82.43,73.82C84.6,72.74,85,71.79,83.33,70Z" fill="#961c26"/><text x="0" y="115" fill="#961c26" font-size="5px" font-weight="bold" font-family="'Helvetica Neue', Helvetica, Arial-Unicode, Arial, Sans-serif">Created by Sean Maldjian</text><text x="0" y="120" fill="#961c26" font-size="5px" font-weight="bold" font-family="'Helvetica Neue', Helvetica, Arial-Unicode, Arial, Sans-serif">from the Noun Project</text></svg>